<svg xmlns="http://www.w3.org/2000/svg" width="200" height="200" class="circle" onload="Horloge()">	
    <style type='text/css'><![CDATA[
        .circle { border-radius: 50%; background: #000; }
        #ah { filter: url(#myfilter); }
        #blanc { stroke: white; fill: white; transition: fill 0.3s, stroke 0.3s; }
        /* Bouton invisible pour activer les capteurs sur mobile */
        #overlay { fill: transparent; cursor: pointer; }
    ]]></style>

    <script type="text/javascript"><![CDATA[
        const getEl = id => document.getElementById(id);

        function updateLightMode(isDark) {
            const lux = isDark ? 0.4 : 0.9;
            const color = isDark ? 'hsl(120, 100%, 80%)' : 'white';
            
            document.querySelectorAll('.bri').forEach(el => el.setAttribute("slope", lux));
            
            const b = getEl('blanc');
            b.style.stroke = b.style.fill = color;
            getEl('m1').style.fill = getEl('h1').style.fill = color;
        }

        function rotateClock() {
            const now = new Date();
            const m = (now.getUTCMinutes() + now.getUTCSeconds()/60) * 6;
            const h = (now.getUTCHours() % 12) * 30 + (m / 12);
            
            getEl('h').setAttribute("transform", `rotate(${h} 100 100)`);
            getEl('m').setAttribute("transform", `rotate(${m} 100 100)`);
            requestAnimationFrame(rotateClock);
        }

        function handleOrientation(event) {
            const beta = event.beta == null ? -200 : Math.round(event.beta) * 2 - 300;
            const gamma = Math.round(event.gamma * 0.6) * -1 / 0.6;
            getEl('ah').setAttribute("transform", `rotate(${gamma} 100 200) translate(0 ${beta})`);
        }

        async function initSensors() {
            // Pour iOS 13+ : demande de permission explicite
            if (typeof DeviceOrientationEvent.requestPermission === 'function') {
                try {
                    const permission = await DeviceOrientationEvent.requestPermission();
                    if (permission === 'granted') window.addEventListener("deviceorientation", handleOrientation);
                } catch (e) { console.error(e); }
            } else {
                window.addEventListener("deviceorientation", handleOrientation);
            }
            getEl('overlay').style.display = 'none'; // Cache le bouton après activation
        }

        // Initialisation
        window.addEventListener('load', () => {
            rotateClock();
            const query = window.matchMedia('(prefers-color-scheme: dark)');
            updateLightMode(query.matches);
            query.addEventListener('change', e => updateLightMode(e.matches));
        });
    ]]></script>

	<defs>
        <filter id="myfilter">
            <feComponentTransfer>
                <feFuncR class="bri" type="linear" slope="0.9"/>
                <feFuncG class="bri" type="linear" slope="0.9"/>
                <feFuncB class="bri" type="linear" slope="0.9"/>
            </feComponentTransfer>
        </filter>
    </defs>
	
	<g id="ah" transform="rotate(0 200 300) translate(0 -200)">
		<rect width="400" height="300" x="-100" y="-300" style="fill:rgb(128,76,25);stroke:none" />
		<rect width="400" height="300" x="-100" style="fill:rgb(114,159,207);stroke:none" />
		<rect width="400" height="300" x="-100" y="300" style="fill:rgb(128,76,25);stroke:none" />
		<rect width="400" height="300" x="-100" y="600" style="fill:rgb(114,159,207);stroke:none" />
	</g>
	<g id="blanc">
		<line x1="92" y1="70" x2="108" y2="70" style="stroke-width:2" />
		<line x1="92" y1="80" x2="108" y2="80" style="stroke-width:2" />
		<line x1="85" y1="90" x2="115" y2="90" style="stroke-width:2" />
		<line x1="50" y1="100" x2="150" y2="100" style="stroke-width:2" />
		<line x1="85" y1="110" x2="115" y2="110" style="stroke-width:2" />
		<line x1="92" y1="120" x2="108" y2="120" style="stroke-width:2" />
		<line x1="92" y1="130" x2="108" y2="130" style="stroke-width:2" />
		<polygon points="95,12 105,12 100,24" style="stroke:none" />
		<text x="88" y="43" style="font-family:Verdana;font-size:24;font-weight:bolder;stroke:none;">12</text>
		<text x="163" y="105" style="font-family:Verdana;font-size:24;font-weight:bolder;stroke:none;">3</text>
		<text x="95" y="175" style="font-family:Verdana;font-size:24;font-weight:bolder;stroke:none;">6</text>
		<text x="25" y="105" style="font-family:Verdana;font-size:24;font-weight:bolder;stroke:none;">9</text>
		<line x1="180" y1="100" x2="188" y2="100" style="stroke-width:4" />
		<line x1="180" y1="100" x2="188" y2="100" style="stroke-width:4" transform="rotate(90 100 100)" />
		<line x1="180" y1="100" x2="188" y2="100" style="stroke-width:4" transform="rotate(180 100 100)" />
		<line x1="168" y1="100" x2="188" y2="100" style="stroke-width:4" transform="rotate(-60 100 100)" />
		<line x1="168" y1="100" x2="188" y2="100" style="stroke-width:4" transform="rotate(-30 100 100)" />
		<line x1="168" y1="100" x2="188" y2="100" style="stroke-width:4" transform="rotate(30 100 100)" />
		<line x1="168" y1="100" x2="188" y2="100" style="stroke-width:4" transform="rotate(60 100 100)" />
		<line x1="168" y1="100" x2="188" y2="100" style="stroke-width:4" transform="rotate(120 100 100)" />
		<line x1="168" y1="100" x2="188" y2="100" style="stroke-width:4" transform="rotate(150 100 100)" />
		<line x1="168" y1="100" x2="188" y2="100" style="stroke-width:4" transform="rotate(210 100 100)" />
		<line x1="168" y1="100" x2="188" y2="100" style="stroke-width:4" transform="rotate(240 100 100)" />
	</g>
	<g id="m" transform="rotate(0 100 100)">
		<path fill="rgb(89,63,68)"  style="stroke:black;stroke-width:1" d="M 98,99 L 95,43 100,17 106,41 100,99 98,99 Z"/>
		<path id="m1" fill="white" stroke="none" d="M 98,77 L 96,43 100,21 105,40 101,77 98,77 Z"/>
	</g>
	<g id="h" transform="rotate(0 100 100)">
		<path fill="rgb(89,63,68)" style="stroke:black;stroke-width:1" d="M 97,97 L 92,56 98,41 106,56 102,97 97,97 Z"/>
		<path id="h1" fill="white" stroke="none" d="M 96,80 L 93,57 98,43 105,57 103,80 96,80 Z"/>
	</g>
</svg>